<svg width="1024" height="1024" viewBox="0 0 1024 1024" fill="none" xmlns="http://www.w3.org/2000/svg">
<g filter="url(#filter0_d_102_72)">
<path fill-rule="evenodd" clip-rule="evenodd" d="M924 356.627C924 346.845 924.004 337.062 923.944 327.279C923.895 319.038 923.8 310.799 923.576 302.562C923.092 284.609 922.033 266.502 918.84 248.749C915.602 230.741 910.314 213.98 901.981 197.617C893.789 181.534 883.088 166.817 870.32 154.058C857.555 141.299 842.834 130.605 826.746 122.418C810.366 114.083 793.587 108.797 775.558 105.56C757.803 102.372 739.691 101.315 721.738 100.83C713.495 100.607 705.253 100.513 697.008 100.462C687.22 100.402 677.432 100.407 667.644 100.407L553.997 100H468.997L357.361 100.407C347.554 100.407 337.747 100.402 327.94 100.462C319.678 100.513 311.42 100.607 303.161 100.83C285.167 101.315 267.014 102.373 249.217 105.565C231.164 108.801 214.36 114.085 197.958 122.414C181.835 130.602 167.083 141.297 154.291 154.058C141.501 166.816 130.78 181.53 122.573 197.61C114.217 213.981 108.919 230.752 105.673 248.77C102.477 266.516 101.418 284.617 100.931 302.562C100.709 310.8 100.613 319.039 100.563 327.279C100.503 337.063 100 349.216 100 358.999L100.003 469.089L100 554.998L100.508 667.427C100.508 677.223 100.504 687.019 100.563 696.815C100.613 705.067 100.709 713.317 100.932 721.566C101.418 739.542 102.479 757.675 105.678 775.452C108.923 793.484 114.22 810.269 122.569 826.653C130.777 842.759 141.5 857.495 154.291 870.272C167.082 883.049 181.83 893.757 197.95 901.956C214.362 910.302 231.174 915.595 249.238 918.836C267.027 922.029 285.174 923.088 303.161 923.573C311.42 923.796 319.679 923.891 327.941 923.941C337.748 924.001 347.554 923.997 357.361 923.997L470.006 924H555.217L667.644 923.996C677.432 923.996 687.22 924.001 697.008 923.941C705.253 923.891 713.495 923.796 721.738 923.573C739.698 923.087 757.816 922.027 775.579 918.832C793.597 915.591 810.368 910.3 826.739 901.959C842.831 893.761 857.554 883.051 870.32 870.272C883.086 857.497 893.786 842.763 901.978 826.66C910.316 810.268 915.604 793.475 918.844 775.431C922.034 757.661 923.092 739.535 923.577 721.566C923.8 713.316 923.895 705.066 923.944 696.815C924.005 687.019 924 677.223 924 667.427C924 667.427 923.994 556.983 923.994 554.998V468.999C923.994 467.533 924 356.627 924 356.627" fill="url(#paint0_linear_102_72)"/>
</g>
<path fill-rule="evenodd" clip-rule="evenodd" d="M740.452 270H283.918C269.865 270 258.389 281.466 258.389 295.508L258.295 596.206C257.886 603.777 257.918 611.065 258.295 618.102V621.84L258.546 622.029C264.3 695.444 314.32 736.628 384.43 730.942C543.168 718.125 618.623 519.178 572.344 370.808C563.447 449.941 422.881 459.679 408.733 555.713C404.143 587.064 416.436 616.625 434.671 634.312C398.767 661.673 371.351 666.448 371.351 666.448C403.671 667.202 432.313 653.443 451.428 641.034C452.025 640.657 452.591 640.28 453.157 639.903C457.37 637.17 461.614 634.092 465.859 630.699C470.983 626.646 474.284 623.599 475.448 622.5C515.816 585.776 554.235 522.916 562.661 463.512C567.44 591.839 454.509 689.789 373.615 686.742C304.7 684.04 299.512 628.249 299.135 574.876L299.198 350.483H725.141L725.046 711.591H487.615C458.911 734.429 420.114 747.717 392.259 754.031H740.357C754.316 754.031 765.792 742.565 765.792 728.523L765.98 295.571C765.98 281.529 754.505 270.063 740.452 270.063V270Z" fill="url(#paint1_linear_102_72)"/>
<path fill-rule="evenodd" clip-rule="evenodd" d="M533.045 685.077C557.725 700.376 604.947 706.564 632.991 680.396C668.486 647.443 669.901 577.012 693.921 567.368C605.45 558.949 553.261 612.573 548.859 666.543C593.629 665.506 620.478 632.427 629.093 614.74C623.842 658.878 571.716 682.501 533.076 685.077H533.045Z" fill="url(#paint2_linear_102_72)"/>
<path fill-rule="evenodd" clip-rule="evenodd" d="M313.943 298.084C321.897 298.084 328.374 304.587 328.374 312.504C328.374 320.42 321.866 326.923 313.943 326.923C306.02 326.923 299.512 320.514 299.512 312.504C299.512 304.493 305.926 298.084 313.943 298.084Z" fill="white"/>
<path fill-rule="evenodd" clip-rule="evenodd" d="M358.713 298.084C366.635 298.084 373.143 304.587 373.143 312.504C373.143 320.42 366.635 326.923 358.713 326.923C350.79 326.923 344.282 320.514 344.282 312.504C344.282 304.493 350.79 298.084 358.713 298.084Z" fill="white"/>
<path fill-rule="evenodd" clip-rule="evenodd" d="M403.451 298.084C411.468 298.084 417.882 304.587 417.882 312.504C417.882 320.42 411.468 326.923 403.451 326.923C395.434 326.923 389.02 320.514 389.02 312.504C389.02 304.493 395.528 298.084 403.451 298.084Z" fill="white"/>
<mask id="mask0_102_72" style="mask-type:luminance" maskUnits="userSpaceOnUse" x="100" y="100" width="824" height="824">
<path fill-rule="evenodd" clip-rule="evenodd" d="M924 356.627C924 346.845 924.004 337.062 923.944 327.279C923.895 319.038 923.8 310.799 923.576 302.562C923.092 284.609 922.033 266.502 918.84 248.749C915.602 230.741 910.314 213.98 901.981 197.617C893.789 181.534 883.088 166.817 870.32 154.058C857.555 141.299 842.834 130.605 826.746 122.418C810.366 114.083 793.587 108.797 775.558 105.56C757.803 102.372 739.691 101.315 721.738 100.83C713.495 100.607 705.253 100.513 697.008 100.462C687.22 100.402 677.432 100.407 667.644 100.407L553.997 100H468.997L357.361 100.407C347.554 100.407 337.747 100.402 327.94 100.462C319.678 100.513 311.42 100.607 303.161 100.83C285.167 101.315 267.014 102.373 249.217 105.565C231.164 108.801 214.36 114.085 197.958 122.414C181.835 130.602 167.083 141.297 154.291 154.058C141.501 166.816 130.78 181.53 122.573 197.61C114.217 213.981 108.919 230.752 105.673 248.77C102.477 266.516 101.418 284.617 100.931 302.562C100.709 310.8 100.613 319.039 100.563 327.279C100.503 337.063 100 349.216 100 358.999L100.003 469.089L100 554.998L100.508 667.427C100.508 677.223 100.504 687.019 100.563 696.815C100.613 705.067 100.709 713.317 100.932 721.566C101.418 739.542 102.479 757.675 105.678 775.452C108.923 793.484 114.22 810.269 122.569 826.653C130.777 842.759 141.5 857.495 154.291 870.272C167.082 883.049 181.83 893.757 197.95 901.956C214.362 910.302 231.174 915.595 249.238 918.836C267.027 922.029 285.174 923.088 303.161 923.573C311.42 923.796 319.679 923.891 327.941 923.941C337.748 924.001 347.554 923.997 357.361 923.997L470.006 924H555.217L667.644 923.996C677.432 923.996 687.22 924.001 697.008 923.941C705.253 923.891 713.495 923.796 721.738 923.573C739.698 923.087 757.816 922.027 775.579 918.832C793.597 915.591 810.368 910.3 826.739 901.959C842.831 893.761 857.554 883.051 870.32 870.272C883.086 857.497 893.786 842.763 901.978 826.66C910.316 810.268 915.604 793.475 918.844 775.431C922.034 757.661 923.092 739.535 923.577 721.566C923.8 713.316 923.895 705.066 923.944 696.815C924.005 687.019 924 677.223 924 667.427C924 667.427 923.994 556.983 923.994 554.998V468.999C923.994 467.533 924 356.627 924 356.627" fill="white"/>
</mask>
<g mask="url(#mask0_102_72)">
</g>
<defs>
<filter id="filter0_d_102_72" x="90" y="100" width="844" height="844" filterUnits="userSpaceOnUse" color-interpolation-filters="sRGB">
<feFlood flood-opacity="0" result="BackgroundImageFix"/>
<feColorMatrix in="SourceAlpha" type="matrix" values="0 0 0 0 0 0 0 0 0 0 0 0 0 0 0 0 0 0 127 0" result="hardAlpha"/>
<feOffset dy="10"/>
<feGaussianBlur stdDeviation="5"/>
<feColorMatrix type="matrix" values="0 0 0 0 0 0 0 0 0 0 0 0 0 0 0 0 0 0 0.3 0"/>
<feBlend mode="normal" in2="BackgroundImageFix" result="effect1_dropShadow_102_72"/>
<feBlend mode="normal" in="SourceGraphic" in2="effect1_dropShadow_102_72" result="shape"/>
</filter>
<linearGradient id="paint0_linear_102_72" x1="512" y1="100" x2="512" y2="924" gradientUnits="userSpaceOnUse">
<stop stop-color="#333333"/>
<stop offset="0.0001" stop-color="#333333"/>
<stop offset="1" stop-color="#1D1D1D"/>
</linearGradient>
<linearGradient id="paint1_linear_102_72" x1="511.98" y1="270" x2="511.98" y2="754" gradientUnits="userSpaceOnUse">
<stop stop-color="#06AB54"/>
<stop offset="1" stop-color="#049347"/>
</linearGradient>
<linearGradient id="paint2_linear_102_72" x1="613.467" y1="566.488" x2="613.467" y2="698.302" gradientUnits="userSpaceOnUse">
<stop stop-color="#06AB54"/>
<stop offset="1" stop-color="#049347"/>
</linearGradient>
</defs>
</svg>
